REM DIRINDEX 1\2\4\18,1\2\4\19,1\2\5\20,1\2\5\21,1\2\6\22,1\2\6\23,1\2\7\24,1\2\8\25,1\2\9\26,1\2\10\27,1\2\10\28,1\3\11\29,1\3\11\30,1\3\11\31,1\3\11\32,1\3\12\33,1\3\12\34,1\3\12\35,1\3\12\36,1\3\13\37,1\3\13\38,1\3\13\39,1\3\13\40,1\3\14\41,1\3\14\42,1\3\15\43,1\3\15\44,1\3\16\45,1\3\16\46,1\3\17\47,1\3\17\48,1\3\17\49,1\3\17\50
REM DIRNAME folder01,folder02,folder03,folder04,folder05,folder06,folder07,folder08,folder09,folder10,folder11,folder12,folder13,folder14,folder15,folder16,folder17,folder18,folder19,folder20,folder21,folder22,folder23,folder24,folder25,folder26,folder27,folder28,folder29,folder30,folder31,folder32,folder33,folder34,folder35,folder36,folder37,folder38,folder39,folder40,folder41,folder42,folder43,folder44,folder45,folder46,folder47,folder48,folder49,folder50
TITLE ""
FILE "07.mp3" MP3
  TRACK 01 AUDIO
    TITLE "0:"
    INDEX 01 00:00:00
  TRACK 02 AUDIO
    TITLE "29:cjc135_4460"
    INDEX 01 00:00:15
  TRACK 03 AUDIO
    TITLE "0:"
    INDEX 01 00:01:38
  TRACK 04 AUDIO
    TITLE "30:cjc135_4461"
    INDEX 01 00:02:14
  TRACK 05 AUDIO
    TITLE "0:"
    INDEX 01 00:03:74
  TRACK 06 AUDIO
    TITLE "31:cjc135_4462"
    INDEX 01 00:04:23
  TRACK 07 AUDIO
    TITLE "0:"
    INDEX 01 00:06:16
  TRACK 08 AUDIO
    TITLE "32:cjc135_4463"
    INDEX 01 00:06:41
  TRACK 09 AUDIO
    TITLE "0:"
    INDEX 01 00:08:38
  TRACK 10 AUDIO
    TITLE "29:cjc135_4464"
    INDEX 01 00:09:38
  TRACK 11 AUDIO
    TITLE "0:"
    INDEX 01 00:10:47
  TRACK 12 AUDIO
    TITLE "30:cjc135_4465"
    INDEX 01 00:11:23
  TRACK 13 AUDIO
    TITLE "0:"
    INDEX 01 00:14:41
  TRACK 14 AUDIO
    TITLE "31:cjc135_4466"
    INDEX 01 00:14:68
  TRACK 15 AUDIO
    TITLE "0:"
    INDEX 01 00:17:45
  TRACK 16 AUDIO
    TITLE "32:cjc135_4467"
    INDEX 01 00:17:72
  TRACK 17 AUDIO
    TITLE "0:"
    INDEX 01 00:20:53
  TRACK 18 AUDIO
    TITLE "29:cjc135_4468"
    INDEX 01 00:21:53
  TRACK 19 AUDIO
    TITLE "0:"
    INDEX 01 00:22:54
  TRACK 20 AUDIO
    TITLE "30:cjc135_4469"
    INDEX 01 00:23:30
  TRACK 21 AUDIO
    TITLE "0:"
    INDEX 01 00:25:25
  TRACK 22 AUDIO
    TITLE "31:cjc135_4470"
    INDEX 01 00:25:50
  TRACK 23 AUDIO
    TITLE "0:"
    INDEX 01 00:27:24
  TRACK 24 AUDIO
    TITLE "32:cjc135_4471"
    INDEX 01 00:27:49
  TRACK 25 AUDIO
    TITLE "0:"
    INDEX 01 00:29:23
  TRACK 26 AUDIO
    TITLE "29:cjc135_4472"
    INDEX 01 00:30:24
  TRACK 27 AUDIO
    TITLE "0:"
    INDEX 01 00:31:35
  TRACK 28 AUDIO
    TITLE "30:cjc135_4473"
    INDEX 01 00:32:09
  TRACK 29 AUDIO
    TITLE "0:"
    INDEX 01 00:34:47
  TRACK 30 AUDIO
    TITLE "31:cjc135_4474"
    INDEX 01 00:34:73
  TRACK 31 AUDIO
    TITLE "0:"
    INDEX 01 00:37:26
  TRACK 32 AUDIO
    TITLE "32:cjc135_4475"
    INDEX 01 00:37:52
  TRACK 33 AUDIO
    TITLE "0:"
    INDEX 01 00:40:05
  TRACK 34 AUDIO
    TITLE "29:cjc135_4476"
    INDEX 01 00:41:10
  TRACK 35 AUDIO
    TITLE "0:"
    INDEX 01 00:42:18
  TRACK 36 AUDIO
    TITLE "30:cjc135_4477"
    INDEX 01 00:42:66
  TRACK 37 AUDIO
    TITLE "0:"
    INDEX 01 00:44:69
  TRACK 38 AUDIO
    TITLE "31:cjc135_4478"
    INDEX 01 00:45:18
  TRACK 39 AUDIO
    TITLE "0:"
    INDEX 01 00:47:21
  TRACK 40 AUDIO
    TITLE "32:cjc135_4479"
    INDEX 01 00:47:48
  TRACK 41 AUDIO
    TITLE "0:"
    INDEX 01 00:49:51
  TRACK 42 AUDIO
    TITLE "29:cjc135_4480"
    INDEX 01 00:50:52
  TRACK 43 AUDIO
    TITLE "0:"
    INDEX 01 00:51:71
  TRACK 44 AUDIO
    TITLE "30:cjc135_4481"
    INDEX 01 00:52:43
  TRACK 45 AUDIO
    TITLE "0:"
    INDEX 01 00:54:17
  TRACK 46 AUDIO
    TITLE "31:cjc135_4482"
    INDEX 01 00:54:42
  TRACK 47 AUDIO
    TITLE "0:"
    INDEX 01 00:56:47
  TRACK 48 AUDIO
    TITLE "32:cjc135_4483"
    INDEX 01 00:56:74
  TRACK 49 AUDIO
    TITLE "0:"
    INDEX 01 00:59:06
  TRACK 50 AUDIO
    TITLE "29:cjc135_4484"
    INDEX 01 01:00:08
  TRACK 51 AUDIO
    TITLE "0:"
    INDEX 01 01:01:11
  TRACK 52 AUDIO
    TITLE "30:cjc135_4485"
    INDEX 01 01:01:62
  TRACK 53 AUDIO
    TITLE "0:"
    INDEX 01 01:04:29
  TRACK 54 AUDIO
    TITLE "31:cjc135_4486"
    INDEX 01 01:04:54
  TRACK 55 AUDIO
    TITLE "0:"
    INDEX 01 01:07:21
  TRACK 56 AUDIO
    TITLE "32:cjc135_4487"
    INDEX 01 01:07:47
  TRACK 57 AUDIO
    TITLE "0:"
    INDEX 01 01:10:12
  TRACK 58 AUDIO
    TITLE "29:cjc135_4488"
    INDEX 01 01:11:15
  TRACK 59 AUDIO
    TITLE "0:"
    INDEX 01 01:12:23
  TRACK 60 AUDIO
    TITLE "30:cjc135_4489"
    INDEX 01 01:12:70
  TRACK 61 AUDIO
    TITLE "0:"
    INDEX 01 01:15:68
  TRACK 62 AUDIO
    TITLE "31:cjc135_4490"
    INDEX 01 01:16:20
  TRACK 63 AUDIO
    TITLE "0:"
    INDEX 01 01:19:01
  TRACK 64 AUDIO
    TITLE "32:cjc135_4491"
    INDEX 01 01:19:40
  TRACK 65 AUDIO
    TITLE "0:"
    INDEX 01 01:22:19
  TRACK 66 AUDIO
    TITLE "29:cjc135_4492"
    INDEX 01 01:23:34
  TRACK 67 AUDIO
    TITLE "0:"
    INDEX 01 01:24:59
  TRACK 68 AUDIO
    TITLE "30:cjc135_4493"
    INDEX 01 01:25:35
  TRACK 69 AUDIO
    TITLE "0:"
    INDEX 01 01:29:41
  TRACK 70 AUDIO
    TITLE "31:cjc135_4494"
    INDEX 01 01:29:68
  TRACK 71 AUDIO
    TITLE "0:"
    INDEX 01 01:32:53
  TRACK 72 AUDIO
    TITLE "32:cjc135_4495"
    INDEX 01 01:33:05
  TRACK 73 AUDIO
    TITLE "0:"
    INDEX 01 01:35:67
  TRACK 74 AUDIO
    TITLE "29:cjc135_4496"
    INDEX 01 01:36:68
  TRACK 75 AUDIO
    TITLE "0:"
    INDEX 01 01:38:04
  TRACK 76 AUDIO
    TITLE "30:cjc135_4497"
    INDEX 01 01:38:51
  TRACK 77 AUDIO
    TITLE "0:"
    INDEX 01 01:40:13
  TRACK 78 AUDIO
    TITLE "31:cjc135_4498"
    INDEX 01 01:40:40
  TRACK 79 AUDIO
    TITLE "0:"
    INDEX 01 01:42:31
  TRACK 80 AUDIO
    TITLE "32:cjc135_4499"
    INDEX 01 01:42:55
  TRACK 81 AUDIO
    TITLE "0:"
    INDEX 01 01:44:46
  TRACK 82 AUDIO
    TITLE "29:cjc135_4500"
    INDEX 01 01:45:45
  TRACK 83 AUDIO
    TITLE "0:"
    INDEX 01 01:46:43
  TRACK 84 AUDIO
    TITLE "30:cjc135_4501"
    INDEX 01 01:47:19
  TRACK 85 AUDIO
    TITLE "0:"
    INDEX 01 01:49:16
  TRACK 86 AUDIO
    TITLE "31:cjc135_4502"
    INDEX 01 01:49:49
  TRACK 87 AUDIO
    TITLE "0:"
    INDEX 01 01:51:21
  TRACK 88 AUDIO
    TITLE "32:cjc135_4503"
    INDEX 01 01:51:46
  TRACK 89 AUDIO
    TITLE "0:"
    INDEX 01 01:53:20
  TRACK 90 AUDIO
    TITLE "29:cjc135_4504"
    INDEX 01 01:54:17
  TRACK 91 AUDIO
    TITLE "0:"
    INDEX 01 01:55:32
  TRACK 92 AUDIO
    TITLE "30:cjc135_4505"
    INDEX 01 01:56:08
  TRACK 93 AUDIO
    TITLE "0:"
    INDEX 01 01:57:49
  TRACK 94 AUDIO
    TITLE "31:cjc135_4506"
    INDEX 01 01:57:74
  TRACK 95 AUDIO
    TITLE "0:"
    INDEX 01 01:59:71
  TRACK 96 AUDIO
    TITLE "32:cjc135_4507"
    INDEX 01 02:00:27
  TRACK 97 AUDIO
    TITLE "0:"
    INDEX 01 02:02:24
  TRACK 98 AUDIO
    TITLE "29:cjc135_4508"
    INDEX 01 02:03:30
  TRACK 99 AUDIO
    TITLE "0:"
    INDEX 01 02:04:41
  TRACK 100 AUDIO
    TITLE "30:cjc135_4509"
    INDEX 01 02:05:23
  TRACK 101 AUDIO
    TITLE "0:"
    INDEX 01 02:08:05
  TRACK 102 AUDIO
    TITLE "31:cjc135_4510"
    INDEX 01 02:08:29
  TRACK 103 AUDIO
    TITLE "0:"
    INDEX 01 02:11:06
  TRACK 104 AUDIO
    TITLE "32:cjc135_4511"
    INDEX 01 02:11:31
  TRACK 105 AUDIO
    TITLE "0:"
    INDEX 01 02:14:08
  TRACK 106 AUDIO
    TITLE "29:cjc135_4512"
    INDEX 01 02:15:09
  TRACK 107 AUDIO
    TITLE "0:"
    INDEX 01 02:16:17
  TRACK 108 AUDIO
    TITLE "30:cjc135_4513"
    INDEX 01 02:16:68
  TRACK 109 AUDIO
    TITLE "0:"
    INDEX 01 02:19:27
  TRACK 110 AUDIO
    TITLE "31:cjc135_4514"
    INDEX 01 02:19:54
  TRACK 111 AUDIO
    TITLE "0:"
    INDEX 01 02:21:24
  TRACK 112 AUDIO
    TITLE "32:cjc135_4515"
    INDEX 01 02:21:49
  TRACK 113 AUDIO
    TITLE "0:"
    INDEX 01 02:23:19
  TRACK 114 AUDIO
    TITLE "29:cjc135_4516"
    INDEX 01 02:24:20
  TRACK 115 AUDIO
    TITLE "0:"
    INDEX 01 02:25:21
  TRACK 116 AUDIO
    TITLE "30:cjc135_4517"
    INDEX 01 02:25:70
  TRACK 117 AUDIO
    TITLE "0:"
    INDEX 01 02:28:59
  TRACK 118 AUDIO
    TITLE "31:cjc135_4518"
    INDEX 01 02:29:08
  TRACK 119 AUDIO
    TITLE "0:"
    INDEX 01 02:31:63
  TRACK 120 AUDIO
    TITLE "32:cjc135_4519"
    INDEX 01 02:32:12
  TRACK 121 AUDIO
    TITLE "0:"
    INDEX 01 02:34:67
  TRACK 122 AUDIO
    TITLE "29:cjc135_4520"
    INDEX 01 02:35:67
  TRACK 123 AUDIO
    TITLE "0:"
    INDEX 01 02:36:66
  TRACK 124 AUDIO
    TITLE "30:cjc135_4521"
    INDEX 01 02:37:42
  TRACK 125 AUDIO
    TITLE "0:"
    INDEX 01 02:40:25
  TRACK 126 AUDIO
    TITLE "31:cjc135_4522"
    INDEX 01 02:40:50
  TRACK 127 AUDIO
    TITLE "0:"
    INDEX 01 02:42:61
  TRACK 128 AUDIO
    TITLE "32:cjc135_4523"
    INDEX 01 02:43:10
  TRACK 129 AUDIO
    TITLE "0:"
    INDEX 01 02:45:20
  TRACK 130 AUDIO
    TITLE "29:cjc135_4524"
    INDEX 01 02:46:20
  TRACK 131 AUDIO
    TITLE "0:"
    INDEX 01 02:47:29
  TRACK 132 AUDIO
    TITLE "30:cjc135_4525"
    INDEX 01 02:48:07
  TRACK 133 AUDIO
    TITLE "0:"
    INDEX 01 02:49:59
  TRACK 134 AUDIO
    TITLE "31:cjc135_4526"
    INDEX 01 02:50:10
  TRACK 135 AUDIO
    TITLE "0:"
    INDEX 01 02:52:40
  TRACK 136 AUDIO
    TITLE "32:cjc135_4527"
    INDEX 01 02:52:67
  TRACK 137 AUDIO
    TITLE "0:"
    INDEX 01 02:55:25
  TRACK 138 AUDIO
    TITLE "29:cjc135_4528"
    INDEX 01 02:56:24
  TRACK 139 AUDIO
    TITLE "0:"
    INDEX 01 02:57:35
  TRACK 140 AUDIO
    TITLE "30:cjc135_4529"
    INDEX 01 02:58:09
  TRACK 141 AUDIO
    TITLE "0:"
    INDEX 01 03:00:26
  TRACK 142 AUDIO
    TITLE "31:cjc135_4530"
    INDEX 01 03:00:51
  TRACK 143 AUDIO
    TITLE "0:"
    INDEX 01 03:02:32
  TRACK 144 AUDIO
    TITLE "32:cjc135_4531"
    INDEX 01 03:02:58
  TRACK 145 AUDIO
    TITLE "0:"
    INDEX 01 03:04:37
  TRACK 146 AUDIO
    TITLE "29:cjc135_4532"
    INDEX 01 03:05:37
  TRACK 147 AUDIO
    TITLE "0:"
    INDEX 01 03:06:44
  TRACK 148 AUDIO
    TITLE "30:cjc135_4533"
    INDEX 01 03:07:22
  TRACK 149 AUDIO
    TITLE "0:"
    INDEX 01 03:10:20
  TRACK 150 AUDIO
    TITLE "31:cjc135_4534"
    INDEX 01 03:10:44
  TRACK 151 AUDIO
    TITLE "0:"
    INDEX 01 03:12:60
  TRACK 152 AUDIO
    TITLE "32:cjc135_4535"
    INDEX 01 03:13:09
  TRACK 153 AUDIO
    TITLE "0:"
    INDEX 01 03:15:25
  TRACK 154 AUDIO
    TITLE "29:cjc135_4536"
    INDEX 01 03:16:25
  TRACK 155 AUDIO
    TITLE "0:"
    INDEX 01 03:17:20
  TRACK 156 AUDIO
    TITLE "30:cjc135_4537"
    INDEX 01 03:17:67
  TRACK 157 AUDIO
    TITLE "0:"
    INDEX 01 03:20:23
  TRACK 158 AUDIO
    TITLE "31:cjc135_4538"
    INDEX 01 03:20:48
  TRACK 159 AUDIO
    TITLE "0:"
    INDEX 01 03:22:43
  TRACK 160 AUDIO
    TITLE "32:cjc135_4539"
    INDEX 01 03:22:66
  TRACK 161 AUDIO
    TITLE "0:"
    INDEX 01 03:24:63
  TRACK 162 AUDIO
    TITLE "29:cjc135_4540"
    INDEX 01 03:25:63
  TRACK 163 AUDIO
    TITLE "0:"
    INDEX 01 03:26:74
  TRACK 164 AUDIO
    TITLE "30:cjc135_4541"
    INDEX 01 03:27:50
  TRACK 165 AUDIO
    TITLE "0:"
    INDEX 01 03:29:39
  TRACK 166 AUDIO
    TITLE "31:cjc135_4542"
    INDEX 01 03:29:63
  TRACK 167 AUDIO
    TITLE "0:"
    INDEX 01 03:31:34
  TRACK 168 AUDIO
    TITLE "32:cjc135_4543"
    INDEX 01 03:31:60
  TRACK 169 AUDIO
    TITLE "0:"
    INDEX 01 03:33:31
  TRACK 170 AUDIO
    TITLE "29:cjc135_4544"
    INDEX 01 03:34:32
  TRACK 171 AUDIO
    TITLE "0:"
    INDEX 01 03:35:50
  TRACK 172 AUDIO
    TITLE "30:cjc135_4545"
    INDEX 01 03:36:25
  TRACK 173 AUDIO
    TITLE "0:"
    INDEX 01 03:37:46
  TRACK 174 AUDIO
    TITLE "31:cjc135_4546"
    INDEX 01 03:37:72
  TRACK 175 AUDIO
    TITLE "0:"
    INDEX 01 03:39:41
  TRACK 176 AUDIO
    TITLE "32:cjc135_4547"
    INDEX 01 03:39:65
  TRACK 177 AUDIO
    TITLE "0:"
    INDEX 01 03:41:34
  TRACK 178 AUDIO
    TITLE "29:cjc135_4548"
    INDEX 01 03:42:32
  TRACK 179 AUDIO
    TITLE "0:"
    INDEX 01 03:43:45
  TRACK 180 AUDIO
    TITLE "30:cjc135_4549"
    INDEX 01 03:44:19
  TRACK 181 AUDIO
    TITLE "0:"
    INDEX 01 03:47:45
  TRACK 182 AUDIO
    TITLE "31:cjc135_4550"
    INDEX 01 03:47:70
  TRACK 183 AUDIO
    TITLE "0:"
    INDEX 01 03:51:29
  TRACK 184 AUDIO
    TITLE "32:cjc135_4551"
    INDEX 01 03:51:52
  TRACK 185 AUDIO
    TITLE "0:"
    INDEX 01 03:55:11
  TRACK 186 AUDIO
    TITLE "29:cjc135_4552"
    INDEX 01 03:56:11
  TRACK 187 AUDIO
    TITLE "0:"
    INDEX 01 03:57:12
  TRACK 188 AUDIO
    TITLE "30:cjc135_4553"
    INDEX 01 03:57:63
  TRACK 189 AUDIO
    TITLE "0:"
    INDEX 01 03:59:27
  TRACK 190 AUDIO
    TITLE "31:cjc135_4554"
    INDEX 01 03:59:52
  TRACK 191 AUDIO
    TITLE "0:"
    INDEX 01 04:01:43
  TRACK 192 AUDIO
    TITLE "32:cjc135_4555"
    INDEX 01 04:01:67
  TRACK 193 AUDIO
    TITLE "0:"
    INDEX 01 04:03:58
  TRACK 194 AUDIO
    TITLE "29:cjc135_4556"
    INDEX 01 04:04:55
  TRACK 195 AUDIO
    TITLE "0:"
    INDEX 01 04:05:70
  TRACK 196 AUDIO
    TITLE "30:cjc135_4557"
    INDEX 01 04:06:46
  TRACK 197 AUDIO
    TITLE "0:"
    INDEX 01 04:08:49
  TRACK 198 AUDIO
    TITLE "31:cjc135_4558"
    INDEX 01 04:08:72
  TRACK 199 AUDIO
    TITLE "0:"
    INDEX 01 04:10:73
  TRACK 200 AUDIO
    TITLE "32:cjc135_4559"
    INDEX 01 04:11:22
  TRACK 201 AUDIO
    TITLE "0:"
    INDEX 01 04:13:23
  TRACK 202 AUDIO
    TITLE "29:cjc135_4560"
    INDEX 01 04:14:22
  TRACK 203 AUDIO
    TITLE "0:"
    INDEX 01 04:15:41
  TRACK 204 AUDIO
    TITLE "30:cjc135_4561"
    INDEX 01 04:16:17
  TRACK 205 AUDIO
    TITLE "0:"
    INDEX 01 04:18:28
  TRACK 206 AUDIO
    TITLE "31:cjc135_4562"
    INDEX 01 04:18:55
  TRACK 207 AUDIO
    TITLE "0:"
    INDEX 01 04:20:50
  TRACK 208 AUDIO
    TITLE "32:cjc135_4563"
    INDEX 01 04:21:03
  TRACK 209 AUDIO
    TITLE "0:"
    INDEX 01 04:23:00
  TRACK 210 AUDIO
    TITLE "29:cjc135_4564"
    INDEX 01 04:23:74
  TRACK 211 AUDIO
    TITLE "0:"
    INDEX 01 04:25:10
  TRACK 212 AUDIO
    TITLE "30:cjc135_4565"
    INDEX 01 04:25:59
  TRACK 213 AUDIO
    TITLE "0:"
    INDEX 01 04:27:50
  TRACK 214 AUDIO
    TITLE "31:cjc135_4566"
    INDEX 01 04:28:03
  TRACK 215 AUDIO
    TITLE "0:"
    INDEX 01 04:29:67
  TRACK 216 AUDIO
    TITLE "32:cjc135_4567"
    INDEX 01 04:30:17
  TRACK 217 AUDIO
    TITLE "0:"
    INDEX 01 04:32:08
  TRACK 218 AUDIO
    TITLE "29:cjc135_4568"
    INDEX 01 04:33:08
  TRACK 219 AUDIO
    TITLE "0:"
    INDEX 01 04:34:31
  TRACK 220 AUDIO
    TITLE "30:cjc135_4569"
    INDEX 01 04:35:07
  TRACK 221 AUDIO
    TITLE "0:"
    INDEX 01 04:37:21
  TRACK 222 AUDIO
    TITLE "31:cjc135_4570"
    INDEX 01 04:37:45
  TRACK 223 AUDIO
    TITLE "0:"
    INDEX 01 04:39:67
  TRACK 224 AUDIO
    TITLE "32:cjc135_4571"
    INDEX 01 04:40:18
  TRACK 225 AUDIO
    TITLE "0:"
    INDEX 01 04:42:40
  TRACK 226 AUDIO
    TITLE "29:cjc135_4572"
    INDEX 01 04:43:39
  TRACK 227 AUDIO
    TITLE "0:"
    INDEX 01 04:44:55
  TRACK 228 AUDIO
    TITLE "30:cjc135_4573"
    INDEX 01 04:45:31
  TRACK 229 AUDIO
    TITLE "0:"
    INDEX 01 04:48:11
  TRACK 230 AUDIO
    TITLE "31:cjc135_4574"
    INDEX 01 04:48:35
  TRACK 231 AUDIO
    TITLE "0:"
    INDEX 01 04:50:53
  TRACK 232 AUDIO
    TITLE "32:cjc135_4575"
    INDEX 01 04:51:02
  TRACK 233 AUDIO
    TITLE "0:"
    INDEX 01 04:53:20
  TRACK 234 AUDIO
    TITLE "29:cjc135_4576"
    INDEX 01 04:54:20
  TRACK 235 AUDIO
    TITLE "0:"
    INDEX 01 04:55:33
  TRACK 236 AUDIO
    TITLE "30:cjc135_4577"
    INDEX 01 04:56:09
  TRACK 237 AUDIO
    TITLE "0:"
    INDEX 01 04:57:26
  TRACK 238 AUDIO
    TITLE "31:cjc135_4578"
    INDEX 01 04:57:51
  TRACK 239 AUDIO
    TITLE "0:"
    INDEX 01 04:59:21
  TRACK 240 AUDIO
    TITLE "32:cjc135_4579"
    INDEX 01 04:59:50
  TRACK 241 AUDIO
    TITLE "0:"
    INDEX 01 05:01:18
  TRACK 242 AUDIO
    TITLE "29:cjc135_4580"
    INDEX 01 05:02:23
  TRACK 243 AUDIO
    TITLE "0:"
    INDEX 01 05:03:36
  TRACK 244 AUDIO
    TITLE "30:cjc135_4581"
    INDEX 01 05:04:12
  TRACK 245 AUDIO
    TITLE "0:"
    INDEX 01 05:08:00
  TRACK 246 AUDIO
    TITLE "31:cjc135_4582"
    INDEX 01 05:08:26
  TRACK 247 AUDIO
    TITLE "0:"
    INDEX 01 05:11:22
  TRACK 248 AUDIO
    TITLE "32:cjc135_4583"
    INDEX 01 05:11:46
  TRACK 249 AUDIO
    TITLE "0:"
    INDEX 01 05:14:42
  TRACK 250 AUDIO
    TITLE "29:cjc135_4584"
    INDEX 01 05:15:39
  TRACK 251 AUDIO
    TITLE "0:"
    INDEX 01 05:16:39
  TRACK 252 AUDIO
    TITLE "30:cjc135_4585"
    INDEX 01 05:17:15
  TRACK 253 AUDIO
    TITLE "0:"
    INDEX 01 05:19:20
  TRACK 254 AUDIO
    TITLE "31:cjc135_4586"
    INDEX 01 05:19:45
  TRACK 255 AUDIO
    TITLE "0:"
    INDEX 01 05:21:44
  TRACK 256 AUDIO
    TITLE "32:cjc135_4587"
    INDEX 01 05:21:68
  TRACK 257 AUDIO
    TITLE "0:"
    INDEX 01 05:23:66
  TRACK 258 AUDIO
    TITLE "29:cjc135_4588"
    INDEX 01 05:24:64
  TRACK 259 AUDIO
    TITLE "0:"
    INDEX 01 05:26:12
  TRACK 260 AUDIO
    TITLE "30:cjc135_4589"
    INDEX 01 05:26:63
  TRACK 261 AUDIO
    TITLE "0:"
    INDEX 01 05:28:24
  TRACK 262 AUDIO
    TITLE "31:cjc135_4590"
    INDEX 01 05:28:48
  TRACK 263 AUDIO
    TITLE "0:"
    INDEX 01 05:30:37
  TRACK 264 AUDIO
    TITLE "32:cjc135_4591"
    INDEX 01 05:30:63
  TRACK 265 AUDIO
    TITLE "0:"
    INDEX 01 05:32:54
  TRACK 266 AUDIO
    TITLE "29:cjc135_4592"
    INDEX 01 05:33:49
  TRACK 267 AUDIO
    TITLE "0:"
    INDEX 01 05:34:56
  TRACK 268 AUDIO
    TITLE "30:cjc135_4593"
    INDEX 01 05:35:32
  TRACK 269 AUDIO
    TITLE "0:"
    INDEX 01 05:37:02
  TRACK 270 AUDIO
    TITLE "31:cjc135_4594"
    INDEX 01 05:37:29
  TRACK 271 AUDIO
    TITLE "0:"
    INDEX 01 05:39:09
  TRACK 272 AUDIO
    TITLE "32:cjc135_4595"
    INDEX 01 05:39:32
  TRACK 273 AUDIO
    TITLE "0:"
    INDEX 01 05:41:11
  TRACK 274 AUDIO
    TITLE "29:cjc135_4596"
    INDEX 01 05:42:09
  TRACK 275 AUDIO
    TITLE "0:"
    INDEX 01 05:43:22
  TRACK 276 AUDIO
    TITLE "30:cjc135_4597"
    INDEX 01 05:43:73
  TRACK 277 AUDIO
    TITLE "0:"
    INDEX 01 05:45:60
  TRACK 278 AUDIO
    TITLE "31:cjc135_4598"
    INDEX 01 05:46:09
  TRACK 279 AUDIO
    TITLE "0:"
    INDEX 01 05:47:55
  TRACK 280 AUDIO
    TITLE "32:cjc135_4599"
    INDEX 01 05:48:06
  TRACK 281 AUDIO
    TITLE "0:"
    INDEX 01 05:49:50
  TRACK 282 AUDIO
    TITLE "29:cjc135_4600"
    INDEX 01 05:50:50
  TRACK 283 AUDIO
    TITLE "0:"
    INDEX 01 05:51:67
  TRACK 284 AUDIO
    TITLE "30:cjc135_4601"
    INDEX 01 05:52:41
  TRACK 285 AUDIO
    TITLE "0:"
    INDEX 01 05:55:55
  TRACK 286 AUDIO
    TITLE "31:cjc135_4602"
    INDEX 01 05:56:01
  TRACK 287 AUDIO
    TITLE "0:"
    INDEX 01 05:58:65
  TRACK 288 AUDIO
    TITLE "32:cjc135_4603"
    INDEX 01 05:59:13
  TRACK 289 AUDIO
    TITLE "0:"
    INDEX 01 06:02:02
  TRACK 290 AUDIO
    TITLE "29:cjc135_4604"
    INDEX 01 06:03:05
  TRACK 291 AUDIO
    TITLE "0:"
    INDEX 01 06:04:12
  TRACK 292 AUDIO
    TITLE "30:cjc135_4605"
    INDEX 01 06:04:61
  TRACK 293 AUDIO
    TITLE "0:"
    INDEX 01 06:07:23
  TRACK 294 AUDIO
    TITLE "31:cjc135_4606"
    INDEX 01 06:07:48
  TRACK 295 AUDIO
    TITLE "0:"
    INDEX 01 06:09:14
  TRACK 296 AUDIO
    TITLE "32:cjc135_4607"
    INDEX 01 06:09:41
  TRACK 297 AUDIO
    TITLE "0:"
    INDEX 01 06:11:07
  TRACK 298 AUDIO
    TITLE "29:cjc135_4608"
    INDEX 01 06:12:08
  TRACK 299 AUDIO
    TITLE "0:"
    INDEX 01 06:13:27
  TRACK 300 AUDIO
    TITLE "30:cjc135_4609"
    INDEX 01 06:13:74
  TRACK 301 AUDIO
    TITLE "0:"
    INDEX 01 06:15:32
  TRACK 302 AUDIO
    TITLE "31:cjc135_4610"
    INDEX 01 06:15:55
  TRACK 303 AUDIO
    TITLE "0:"
    INDEX 01 06:17:23
  TRACK 304 AUDIO
    TITLE "32:cjc135_4611"
    INDEX 01 06:17:46
  TRACK 305 AUDIO
    TITLE "0:"
    INDEX 01 06:19:14
  TRACK 306 AUDIO
    TITLE "29:cjc135_4612"
    INDEX 01 06:20:12
  TRACK 307 AUDIO
    TITLE "0:"
    INDEX 01 06:21:11
  TRACK 308 AUDIO
    TITLE "30:cjc135_4613"
    INDEX 01 06:21:62
  TRACK 309 AUDIO
    TITLE "0:"
    INDEX 01 06:23:33
  TRACK 310 AUDIO
    TITLE "31:cjc135_4614"
    INDEX 01 06:23:57
  TRACK 311 AUDIO
    TITLE "0:"
    INDEX 01 06:25:38
  TRACK 312 AUDIO
    TITLE "32:cjc135_4615"
    INDEX 01 06:25:62
  TRACK 313 AUDIO
    TITLE "0:"
    INDEX 01 06:27:41
  TRACK 314 AUDIO
    TITLE "29:cjc135_4616"
    INDEX 01 06:28:42
  TRACK 315 AUDIO
    TITLE "0:"
    INDEX 01 06:29:57
  TRACK 316 AUDIO
    TITLE "30:cjc135_4617"
    INDEX 01 06:30:31
  TRACK 317 AUDIO
    TITLE "0:"
    INDEX 01 06:32:64
  TRACK 318 AUDIO
    TITLE "31:cjc135_4618"
    INDEX 01 06:33:14
  TRACK 319 AUDIO
    TITLE "0:"
    INDEX 01 06:35:07
  TRACK 320 AUDIO
    TITLE "32:cjc135_4619"
    INDEX 01 06:35:33
  TRACK 321 AUDIO
    TITLE "0:"
    INDEX 01 06:37:26
  TRACK 322 AUDIO
    TITLE "29:cjc135_4620"
    INDEX 01 06:38:25
  TRACK 323 AUDIO
    TITLE "0:"
    INDEX 01 06:39:62
  TRACK 324 AUDIO
    TITLE "30:cjc135_4621"
    INDEX 01 06:40:38
  TRACK 325 AUDIO
    TITLE "0:"
    INDEX 01 06:43:36
  TRACK 326 AUDIO
    TITLE "31:cjc135_4622"
    INDEX 01 06:43:60
  TRACK 327 AUDIO
    TITLE "0:"
    INDEX 01 06:46:68
  TRACK 328 AUDIO
    TITLE "32:cjc135_4623"
    INDEX 01 06:47:16
  TRACK 329 AUDIO
    TITLE "0:"
    INDEX 01 06:50:24
  TRACK 330 AUDIO
    TITLE "29:cjc135_4624"
    INDEX 01 06:51:26
  TRACK 331 AUDIO
    TITLE "0:"
    INDEX 01 06:52:39
  TRACK 332 AUDIO
    TITLE "30:cjc135_4625"
    INDEX 01 06:53:13
  TRACK 333 AUDIO
    TITLE "0:"
    INDEX 01 06:55:06
  TRACK 334 AUDIO
    TITLE "31:cjc135_4626"
    INDEX 01 06:55:31
  TRACK 335 AUDIO
    TITLE "0:"
    INDEX 01 06:57:17
  TRACK 336 AUDIO
    TITLE "32:cjc135_4627"
    INDEX 01 06:57:40
  TRACK 337 AUDIO
    TITLE "0:"
    INDEX 01 06:59:23
  TRACK 338 AUDIO
    TITLE "29:cjc135_4628"
    INDEX 01 07:00:23
  TRACK 339 AUDIO
    TITLE "0:"
    INDEX 01 07:01:36
  TRACK 340 AUDIO
    TITLE "30:cjc135_4629"
    INDEX 01 07:02:12
  TRACK 341 AUDIO
    TITLE "0:"
    INDEX 01 07:03:70
  TRACK 342 AUDIO
    TITLE "31:cjc135_4630"
    INDEX 01 07:04:21
  TRACK 343 AUDIO
    TITLE "0:"
    INDEX 01 07:06:31
  TRACK 344 AUDIO
    TITLE "32:cjc135_4631"
    INDEX 01 07:06:57
  TRACK 345 AUDIO
    TITLE "0:"
    INDEX 01 07:08:69
  TRACK 346 AUDIO
    TITLE "29:cjc135_4632"
    INDEX 01 07:09:69
  TRACK 347 AUDIO
    TITLE "0:"
    INDEX 01 07:11:27
  TRACK 348 AUDIO
    TITLE "30:cjc135_4633"
    INDEX 01 07:12:00
  TRACK 349 AUDIO
    TITLE "0:"
    INDEX 01 07:13:29
  TRACK 350 AUDIO
    TITLE "31:cjc135_4634"
    INDEX 01 07:13:59
  TRACK 351 AUDIO
    TITLE "0:"
    INDEX 01 07:15:58
  TRACK 352 AUDIO
    TITLE "32:cjc135_4635"
    INDEX 01 07:16:08
  TRACK 353 AUDIO
    TITLE "0:"
    INDEX 01 07:18:05
  TRACK 354 AUDIO
    TITLE "29:cjc135_4636"
    INDEX 01 07:19:04
  TRACK 355 AUDIO
    TITLE "0:"
    INDEX 01 07:20:25
  TRACK 356 AUDIO
    TITLE "30:cjc135_4637"
    INDEX 01 07:21:01
  TRACK 357 AUDIO
    TITLE "0:"
    INDEX 01 07:23:49
  TRACK 358 AUDIO
    TITLE "31:cjc135_4638"
    INDEX 01 07:24:00
  TRACK 359 AUDIO
    TITLE "0:"
    INDEX 01 07:26:24
  TRACK 360 AUDIO
    TITLE "32:cjc135_4639"
    INDEX 01 07:26:48
  TRACK 361 AUDIO
    TITLE "0:"
    INDEX 01 07:28:72
  TRACK 362 AUDIO
    TITLE "29:cjc135_4640"
    INDEX 01 07:29:69
  TRACK 363 AUDIO
    TITLE "0:"
    INDEX 01 07:31:10
  TRACK 364 AUDIO
    TITLE "30:cjc135_4641"
    INDEX 01 07:31:59
  TRACK 365 AUDIO
    TITLE "0:"
    INDEX 01 07:35:54
  TRACK 366 AUDIO
    TITLE "31:cjc135_4642"
    INDEX 01 07:36:03
  TRACK 367 AUDIO
    TITLE "0:"
    INDEX 01 07:39:44
  TRACK 368 AUDIO
    TITLE "32:cjc135_4643"
    INDEX 01 07:39:70
  TRACK 369 AUDIO
    TITLE "0:"
    INDEX 01 07:43:36
  TRACK 370 AUDIO
    TITLE "29:cjc135_4644"
    INDEX 01 07:44:38
  TRACK 371 AUDIO
    TITLE "0:"
    INDEX 01 07:45:57
  TRACK 372 AUDIO
    TITLE "30:cjc135_4645"
    INDEX 01 07:46:27
  TRACK 373 AUDIO
    TITLE "0:"
    INDEX 01 07:48:37
  TRACK 374 AUDIO
    TITLE "31:cjc135_4646"
    INDEX 01 07:48:63
  TRACK 375 AUDIO
    TITLE "0:"
    INDEX 01 07:50:44
  TRACK 376 AUDIO
    TITLE "32:cjc135_4647"
    INDEX 01 07:50:68
  TRACK 377 AUDIO
    TITLE "0:"
    INDEX 01 07:52:49
  TRACK 378 AUDIO
    TITLE "29:cjc135_4648"
    INDEX 01 07:53:46
  TRACK 379 AUDIO
    TITLE "0:"
    INDEX 01 07:54:58
  TRACK 380 AUDIO
    TITLE "30:cjc135_4649"
    INDEX 01 07:55:32
  TRACK 381 AUDIO
    TITLE "0:"
    INDEX 01 07:58:01
  TRACK 382 AUDIO
    TITLE "31:cjc135_4650"
    INDEX 01 07:58:24
  TRACK 383 AUDIO
    TITLE "0:"
    INDEX 01 08:00:35
  TRACK 384 AUDIO
    TITLE "32:cjc135_4651"
    INDEX 01 08:00:60
  TRACK 385 AUDIO
    TITLE "0:"
    INDEX 01 08:02:69
  TRACK 386 AUDIO
    TITLE "29:cjc135_4652"
    INDEX 01 08:03:70
  TRACK 387 AUDIO
    TITLE "0:"
    INDEX 01 08:05:05
  TRACK 388 AUDIO
    TITLE "30:cjc135_4653"
    INDEX 01 08:05:52
  TRACK 389 AUDIO
    TITLE "0:"
    INDEX 01 08:07:19
  TRACK 390 AUDIO
    TITLE "31:cjc135_4654"
    INDEX 01 08:07:47
  TRACK 391 AUDIO
    TITLE "0:"
    INDEX 01 08:09:08
  TRACK 392 AUDIO
    TITLE "32:cjc135_4655"
    INDEX 01 08:09:38
  TRACK 393 AUDIO
    TITLE "0:"
    INDEX 01 08:10:72
  TRACK 394 AUDIO
    TITLE "29:cjc135_4656"
    INDEX 01 08:11:74
  TRACK 395 AUDIO
    TITLE "0:"
    INDEX 01 08:13:00
  TRACK 396 AUDIO
    TITLE "30:cjc135_4657"
    INDEX 01 08:13:49
  TRACK 397 AUDIO
    TITLE "0:"
    INDEX 01 08:15:58
  TRACK 398 AUDIO
    TITLE "31:cjc135_4658"
    INDEX 01 08:16:10
  TRACK 399 AUDIO
    TITLE "0:"
    INDEX 01 08:18:05
  TRACK 400 AUDIO
    TITLE "32:cjc135_4659"
    INDEX 01 08:18:27
  TRACK 401 AUDIO
    TITLE "0:"
    INDEX 01 08:20:20
  TRACK 402 AUDIO
    TITLE "29:cjc135_4660"
    INDEX 01 08:21:23
  TRACK 403 AUDIO
    TITLE "0:"
    INDEX 01 08:22:23
  TRACK 404 AUDIO
    TITLE "30:cjc135_4661"
    INDEX 01 08:23:01
  TRACK 405 AUDIO
    TITLE "0:"
    INDEX 01 08:25:45
  TRACK 406 AUDIO
    TITLE "31:cjc135_4662"
    INDEX 01 08:25:70
  TRACK 407 AUDIO
    TITLE "0:"
    INDEX 01 08:28:06
  TRACK 408 AUDIO
    TITLE "32:cjc135_4663"
    INDEX 01 08:28:29
  TRACK 409 AUDIO
    TITLE "0:"
    INDEX 01 08:30:38
  TRACK 410 AUDIO
    TITLE "29:cjc135_4664"
    INDEX 01 08:31:39
  TRACK 411 AUDIO
    TITLE "0:"
    INDEX 01 08:32:41
  TRACK 412 AUDIO
    TITLE "30:cjc135_4665"
    INDEX 01 08:33:13
  TRACK 413 AUDIO
    TITLE "0:"
    INDEX 01 08:35:41
  TRACK 414 AUDIO
    TITLE "31:cjc135_4666"
    INDEX 01 08:35:64
  TRACK 415 AUDIO
    TITLE "0:"
    INDEX 01 08:37:71
  TRACK 416 AUDIO
    TITLE "32:cjc135_4667"
    INDEX 01 08:38:22
  TRACK 417 AUDIO
    TITLE "0:"
    INDEX 01 08:40:30
  TRACK 418 AUDIO
    TITLE "29:cjc135_4668"
    INDEX 01 08:41:30
  TRACK 419 AUDIO
    TITLE "0:"
    INDEX 01 08:42:33
  TRACK 420 AUDIO
    TITLE "30:cjc135_4669"
    INDEX 01 08:43:07
  TRACK 421 AUDIO
    TITLE "0:"
    INDEX 01 08:44:42
  TRACK 422 AUDIO
    TITLE "31:cjc135_4670"
    INDEX 01 08:44:67
  TRACK 423 AUDIO
    TITLE "0:"
    INDEX 01 08:46:17
  TRACK 424 AUDIO
    TITLE "32:cjc135_4671"
    INDEX 01 08:46:43
  TRACK 425 AUDIO
    TITLE "0:"
    INDEX 01 08:47:68
  TRACK 426 AUDIO
    TITLE "29:cjc135_4672"
    INDEX 01 08:48:67
  TRACK 427 AUDIO
    TITLE "0:"
    INDEX 01 08:49:65
  TRACK 428 AUDIO
    TITLE "30:cjc135_4673"
    INDEX 01 08:50:41
  TRACK 429 AUDIO
    TITLE "0:"
    INDEX 01 08:52:22
  TRACK 430 AUDIO
    TITLE "31:cjc135_4674"
    INDEX 01 08:52:45
  TRACK 431 AUDIO
    TITLE "0:"
    INDEX 01 08:54:27
  TRACK 432 AUDIO
    TITLE "32:cjc135_4675"
    INDEX 01 08:54:50
  TRACK 433 AUDIO
    TITLE "0:"
    INDEX 01 08:56:31
  TRACK 434 AUDIO
    TITLE "29:cjc135_4676"
    INDEX 01 08:57:29
  TRACK 435 AUDIO
    TITLE "0:"
    INDEX 01 08:58:22
  TRACK 436 AUDIO
    TITLE "30:cjc135_4677"
    INDEX 01 08:59:00
  TRACK 437 AUDIO
    TITLE "0:"
    INDEX 01 09:01:33
  TRACK 438 AUDIO
    TITLE "31:cjc135_4678"
    INDEX 01 09:01:58
  TRACK 439 AUDIO
    TITLE "0:"
    INDEX 01 09:03:65
  TRACK 440 AUDIO
    TITLE "32:cjc135_4679"
    INDEX 01 09:04:17
  TRACK 441 AUDIO
    TITLE "0:"
    INDEX 01 09:06:24
  TRACK 442 AUDIO
    TITLE "29:cjc135_4680"
    INDEX 01 09:07:27
  TRACK 443 AUDIO
    TITLE "0:"
    INDEX 01 09:08:33
  TRACK 444 AUDIO
    TITLE "30:cjc135_4681"
    INDEX 01 09:09:07
  TRACK 445 AUDIO
    TITLE "0:"
    INDEX 01 09:11:64
  TRACK 446 AUDIO
    TITLE "31:cjc135_4682"
    INDEX 01 09:12:15
  TRACK 447 AUDIO
    TITLE "0:"
    INDEX 01 09:14:33
  TRACK 448 AUDIO
    TITLE "32:cjc135_4683"
    INDEX 01 09:14:57
  TRACK 449 AUDIO
    TITLE "0:"
    INDEX 01 09:17:00
  TRACK 450 AUDIO
    TITLE "29:cjc135_4684"
    INDEX 01 09:18:00
  TRACK 451 AUDIO
    TITLE "0:"
    INDEX 01 09:19:19
  TRACK 452 AUDIO
    TITLE "30:cjc135_4685"
    INDEX 01 09:19:68
  TRACK 453 AUDIO
    TITLE "0:"
    INDEX 01 09:21:72
  TRACK 454 AUDIO
    TITLE "31:cjc135_4686"
    INDEX 01 09:22:23
  TRACK 455 AUDIO
    TITLE "0:"
    INDEX 01 09:24:34
  TRACK 456 AUDIO
    TITLE "32:cjc135_4687"
    INDEX 01 09:24:57
  TRACK 457 AUDIO
    TITLE "0:"
    INDEX 01 09:26:70
  TRACK 458 AUDIO
    TITLE "29:cjc135_4688"
    INDEX 01 09:27:67
  TRACK 459 AUDIO
    TITLE "0:"
    INDEX 01 09:29:03
  TRACK 460 AUDIO
    TITLE "30:cjc135_4689"
    INDEX 01 09:29:52
  TRACK 461 AUDIO
    TITLE "0:"
    INDEX 01 09:32:17
  TRACK 462 AUDIO
    TITLE "31:cjc135_4690"
    INDEX 01 09:32:43
  TRACK 463 AUDIO
    TITLE "0:"
    INDEX 01 09:34:63
  TRACK 464 AUDIO
    TITLE "32:cjc135_4691"
    INDEX 01 09:35:12
  TRACK 465 AUDIO
    TITLE "0:"
    INDEX 01 09:37:34
  TRACK 466 AUDIO
    TITLE "29:cjc135_4692"
    INDEX 01 09:38:32
  TRACK 467 AUDIO
    TITLE "0:"
    INDEX 01 09:39:51
  TRACK 468 AUDIO
    TITLE "30:cjc135_4693"
    INDEX 01 09:40:21
  TRACK 469 AUDIO
    TITLE "0:"
    INDEX 01 09:42:47
  TRACK 470 AUDIO
    TITLE "31:cjc135_4694"
    INDEX 01 09:42:71
  TRACK 471 AUDIO
    TITLE "0:"
    INDEX 01 09:45:16
  TRACK 472 AUDIO
    TITLE "32:cjc135_4695"
    INDEX 01 09:45:42
  TRACK 473 AUDIO
    TITLE "0:"
    INDEX 01 09:47:62
  TRACK 474 AUDIO
    TITLE "29:cjc135_4696"
    INDEX 01 09:48:61
  TRACK 475 AUDIO
    TITLE "0:"
    INDEX 01 09:50:00
  TRACK 476 AUDIO
    TITLE "30:cjc135_4697"
    INDEX 01 09:50:47
  TRACK 477 AUDIO
    TITLE "0:"
    INDEX 01 09:52:28
  TRACK 478 AUDIO
    TITLE "31:cjc135_4698"
    INDEX 01 09:52:51
  TRACK 479 AUDIO
    TITLE "0:"
    INDEX 01 09:54:27
  TRACK 480 AUDIO
    TITLE "32:cjc135_4699"
    INDEX 01 09:54:50
  TRACK 481 AUDIO
    TITLE "0:"
    INDEX 01 09:56:24
  TRACK 482 AUDIO
    TITLE "29:cjc135_4700"
    INDEX 01 09:57:21
  TRACK 483 AUDIO
    TITLE "0:"
    INDEX 01 09:58:29
  TRACK 484 AUDIO
    TITLE "30:cjc135_4701"
    INDEX 01 09:59:03
  TRACK 485 AUDIO
    TITLE "0:"
    INDEX 01 10:00:59
  TRACK 486 AUDIO
    TITLE "31:cjc135_4702"
    INDEX 01 10:01:07
  TRACK 487 AUDIO
    TITLE "0:"
    INDEX 01 10:02:58
  TRACK 488 AUDIO
    TITLE "32:cjc135_4703"
    INDEX 01 10:03:06
  TRACK 489 AUDIO
    TITLE "0:"
    INDEX 01 10:04:57
  TRACK 490 AUDIO
    TITLE "29:cjc135_4704"
    INDEX 01 10:05:58
  TRACK 491 AUDIO
    TITLE "0:"
    INDEX 01 10:07:02
  TRACK 492 AUDIO
    TITLE "30:cjc135_4705"
    INDEX 01 10:07:49
  TRACK 493 AUDIO
    TITLE "0:"
    INDEX 01 10:11:14
  TRACK 494 AUDIO
    TITLE "31:cjc135_4706"
    INDEX 01 10:11:37
  TRACK 495 AUDIO
    TITLE "0:"
    INDEX 01 10:14:04
  TRACK 496 AUDIO
    TITLE "32:cjc135_4707"
    INDEX 01 10:14:28
  TRACK 497 AUDIO
    TITLE "0:"
    INDEX 01 10:16:70
  TRACK 498 AUDIO
    TITLE "29:cjc135_4708"
    INDEX 01 10:17:67
  TRACK 499 AUDIO
    TITLE "0:"
    INDEX 01 10:19:05
  TRACK 500 AUDIO
    TITLE "30:cjc135_4709"
    INDEX 01 10:19:54
  TRACK 501 AUDIO
    TITLE "0:"
    INDEX 01 10:22:72
  TRACK 502 AUDIO
    TITLE "31:cjc135_4710"
    INDEX 01 10:23:19
  TRACK 503 AUDIO
    TITLE "0:"
    INDEX 01 10:26:11
  TRACK 504 AUDIO
    TITLE "32:cjc135_4711"
    INDEX 01 10:26:35
  TRACK 505 AUDIO
    TITLE "0:"
    INDEX 01 10:29:27
  TRACK 506 AUDIO
    TITLE "29:cjc135_4712"
    INDEX 01 10:30:25
  TRACK 507 AUDIO
    TITLE "0:"
    INDEX 01 10:31:42
  TRACK 508 AUDIO
    TITLE "30:cjc135_4713"
    INDEX 01 10:32:18
  TRACK 509 AUDIO
    TITLE "0:"
    INDEX 01 10:33:64
  TRACK 510 AUDIO
    TITLE "31:cjc135_4714"
    INDEX 01 10:34:15
  TRACK 511 AUDIO
    TITLE "0:"
    INDEX 01 10:35:71
  TRACK 512 AUDIO
    TITLE "32:cjc135_4715"
    INDEX 01 10:36:19
  TRACK 513 AUDIO
    TITLE "0:"
    INDEX 01 10:37:74
  TRACK 514 AUDIO
    TITLE "29:cjc135_4716"
    INDEX 01 10:39:00
  TRACK 515 AUDIO
    TITLE "0:"
    INDEX 01 10:40:13
  TRACK 516 AUDIO
    TITLE "30:cjc135_4717"
    INDEX 01 10:40:64
  TRACK 517 AUDIO
    TITLE "0:"
    INDEX 01 10:42:49
  TRACK 518 AUDIO
    TITLE "31:cjc135_4718"
    INDEX 01 10:42:73
  TRACK 519 AUDIO
    TITLE "0:"
    INDEX 01 10:44:44
  TRACK 520 AUDIO
    TITLE "32:cjc135_4719"
    INDEX 01 10:44:70
  TRACK 521 AUDIO
    TITLE "0:"
    INDEX 01 10:46:41
  TRACK 522 AUDIO
    TITLE "29:cjc135_4720"
    INDEX 01 10:47:43
  TRACK 523 AUDIO
    TITLE "0:"
    INDEX 01 10:48:68
  TRACK 524 AUDIO
    TITLE "30:cjc135_4721"
    INDEX 01 10:49:42
  TRACK 525 AUDIO
    TITLE "0:"
    INDEX 01 10:51:74
  TRACK 526 AUDIO
    TITLE "31:cjc135_4722"
    INDEX 01 10:52:22
  TRACK 527 AUDIO
    TITLE "0:"
    INDEX 01 10:54:29
  TRACK 528 AUDIO
    TITLE "32:cjc135_4723"
    INDEX 01 10:54:54
  TRACK 529 AUDIO
    TITLE "0:"
    INDEX 01 10:56:61
  TRACK 530 AUDIO
    TITLE "29:cjc135_4724"
    INDEX 01 10:57:63
  TRACK 531 AUDIO
    TITLE "0:"
    INDEX 01 10:58:74
  TRACK 532 AUDIO
    TITLE "30:cjc135_4725"
    INDEX 01 10:59:48
  TRACK 533 AUDIO
    TITLE "0:"
    INDEX 01 11:02:01
  TRACK 534 AUDIO
    TITLE "31:cjc135_4726"
    INDEX 01 11:02:25
  TRACK 535 AUDIO
    TITLE "0:"
    INDEX 01 11:04:33
  TRACK 536 AUDIO
    TITLE "32:cjc135_4727"
    INDEX 01 11:04:57
  TRACK 537 AUDIO
    TITLE "0:"
    INDEX 01 11:06:66
  TRACK 538 AUDIO
    TITLE "29:cjc135_4728"
    INDEX 01 11:07:65
  TRACK 539 AUDIO
    TITLE "0:"
    INDEX 01 11:09:01
  TRACK 540 AUDIO
    TITLE "30:cjc135_4729"
    INDEX 01 11:09:50
  TRACK 541 AUDIO
    TITLE "0:"
    INDEX 01 11:11:43
  TRACK 542 AUDIO
    TITLE "31:cjc135_4730"
    INDEX 01 11:11:67
  TRACK 543 AUDIO
    TITLE "0:"
    INDEX 01 11:13:52
  TRACK 544 AUDIO
    TITLE "32:cjc135_4731"
    INDEX 01 11:14:02
  TRACK 545 AUDIO
    TITLE "0:"
    INDEX 01 11:15:63
  TRACK 546 AUDIO
    TITLE "29:cjc135_4732"
    INDEX 01 11:16:62
  TRACK 547 AUDIO
    TITLE "0:"
    INDEX 01 11:17:67
  TRACK 548 AUDIO
    TITLE "30:cjc135_4733"
    INDEX 01 11:18:41
  TRACK 549 AUDIO
    TITLE "0:"
    INDEX 01 11:21:26
  TRACK 550 AUDIO
    TITLE "31:cjc135_4734"
    INDEX 01 11:21:51
  TRACK 551 AUDIO
    TITLE "0:"
    INDEX 01 11:23:70
  TRACK 552 AUDIO
    TITLE "32:cjc135_4735"
    INDEX 01 11:24:20
  TRACK 553 AUDIO
    TITLE "0:"
    INDEX 01 11:26:37
  TRACK 554 AUDIO
    TITLE "29:cjc135_4736"
    INDEX 01 11:27:36
  TRACK 555 AUDIO
    TITLE "0:"
    INDEX 01 11:28:42
  TRACK 556 AUDIO
    TITLE "30:cjc135_4737"
    INDEX 01 11:29:16
  TRACK 557 AUDIO
    TITLE "0:"
    INDEX 01 11:31:34
  TRACK 558 AUDIO
    TITLE "31:cjc135_4738"
    INDEX 01 11:31:58
  TRACK 559 AUDIO
    TITLE "0:"
    INDEX 01 11:33:49
  TRACK 560 AUDIO
    TITLE "32:cjc135_4739"
    INDEX 01 11:33:74
  TRACK 561 AUDIO
    TITLE "0:"
    INDEX 01 11:35:67
  TRACK 562 AUDIO
    TITLE "29:cjc135_4740"
    INDEX 01 11:36:67
  TRACK 563 AUDIO
    TITLE "0:"
    INDEX 01 11:37:70
  TRACK 564 AUDIO
    TITLE "30:cjc135_4741"
    INDEX 01 11:38:48
  TRACK 565 AUDIO
    TITLE "0:"
    INDEX 01 11:42:20
  TRACK 566 AUDIO
    TITLE "31:cjc135_4742"
    INDEX 01 11:42:46
  TRACK 567 AUDIO
    TITLE "0:"
    INDEX 01 11:44:74
  TRACK 568 AUDIO
    TITLE "32:cjc135_4743"
    INDEX 01 11:45:22
  TRACK 569 AUDIO
    TITLE "0:"
    INDEX 01 11:47:51
  TRACK 570 AUDIO
    TITLE "29:cjc135_4744"
    INDEX 01 11:48:50
  TRACK 571 AUDIO
    TITLE "0:"
    INDEX 01 11:49:57
  TRACK 572 AUDIO
    TITLE "30:cjc135_4745"
    INDEX 01 11:50:39
  TRACK 573 AUDIO
    TITLE "0:"
    INDEX 01 11:52:17
  TRACK 574 AUDIO
    TITLE "31:cjc135_4746"
    INDEX 01 11:52:36
  TRACK 575 AUDIO
    TITLE "0:"
    INDEX 01 11:54:08
  TRACK 576 AUDIO
    TITLE "32:cjc135_4747"
    INDEX 01 11:54:29
  TRACK 577 AUDIO
    TITLE "0:"
    INDEX 01 11:56:01
  TRACK 578 AUDIO
    TITLE "29:cjc135_4748"
    INDEX 01 11:57:00
  TRACK 579 AUDIO
    TITLE "0:"
    INDEX 01 11:58:21
  TRACK 580 AUDIO
    TITLE "30:cjc135_4749"
    INDEX 01 11:58:72
  TRACK 581 AUDIO
    TITLE "0:"
    INDEX 01 12:00:57
  TRACK 582 AUDIO
    TITLE "31:cjc135_4750"
    INDEX 01 12:01:14
  TRACK 583 AUDIO
    TITLE "0:"
    INDEX 01 12:03:09
  TRACK 584 AUDIO
    TITLE "32:cjc135_4751"
    INDEX 01 12:03:32
  TRACK 585 AUDIO
    TITLE "0:"
    INDEX 01 12:05:29
  TRACK 586 AUDIO
    TITLE "29:cjc135_4752"
    INDEX 01 12:06:27
  TRACK 587 AUDIO
    TITLE "0:"
    INDEX 01 12:07:32
  TRACK 588 AUDIO
    TITLE "30:cjc135_4753"
    INDEX 01 12:08:08
  TRACK 589 AUDIO
    TITLE "0:"
    INDEX 01 12:09:50
  TRACK 590 AUDIO
    TITLE "31:cjc135_4754"
    INDEX 01 12:09:74
  TRACK 591 AUDIO
    TITLE "0:"
    INDEX 01 12:11:32
  TRACK 592 AUDIO
    TITLE "32:cjc135_4755"
    INDEX 01 12:11:57
  TRACK 593 AUDIO
    TITLE "0:"
    INDEX 01 12:13:13
  TRACK 594 AUDIO
    TITLE "29:cjc135_4756"
    INDEX 01 12:14:14
  TRACK 595 AUDIO
    TITLE "0:"
    INDEX 01 12:15:08
  TRACK 596 AUDIO
    TITLE "30:cjc135_4757"
    INDEX 01 12:15:57
  TRACK 597 AUDIO
    TITLE "0:"
    INDEX 01 12:17:62
  TRACK 598 AUDIO
    TITLE "31:cjc135_4758"
    INDEX 01 12:18:12
  TRACK 599 AUDIO
    TITLE "0:"
    INDEX 01 12:19:74
  TRACK 600 AUDIO
    TITLE "32:cjc135_4759"
    INDEX 01 12:20:23
  TRACK 601 AUDIO
    TITLE "0:"
    INDEX 01 12:22:08
  TRACK 602 AUDIO
    TITLE "29:cjc135_4760"
    INDEX 01 12:23:07
  TRACK 603 AUDIO
    TITLE "0:"
    INDEX 01 12:24:11
  TRACK 604 AUDIO
    TITLE "30:cjc135_4761"
    INDEX 01 12:24:60
  TRACK 605 AUDIO
    TITLE "0:"
    INDEX 01 12:27:15
  TRACK 606 AUDIO
    TITLE "31:cjc135_4762"
    INDEX 01 12:27:37
  TRACK 607 AUDIO
    TITLE "0:"
    INDEX 01 12:29:47
  TRACK 608 AUDIO
    TITLE "32:cjc135_4763"
    INDEX 01 12:29:73
  TRACK 609 AUDIO
    TITLE "0:"
    INDEX 01 12:32:06
  TRACK 610 AUDIO
    TITLE "29:cjc135_4764"
    INDEX 01 12:33:08
  TRACK 611 AUDIO
    TITLE "0:"
    INDEX 01 12:34:19
  TRACK 612 AUDIO
    TITLE "30:cjc135_4765"
    INDEX 01 12:34:70
  TRACK 613 AUDIO
    TITLE "0:"
    INDEX 01 12:36:73
  TRACK 614 AUDIO
    TITLE "31:cjc135_4766"
    INDEX 01 12:37:21
  TRACK 615 AUDIO
    TITLE "0:"
    INDEX 01 12:38:60
  TRACK 616 AUDIO
    TITLE "32:cjc135_4767"
    INDEX 01 12:39:10
  TRACK 617 AUDIO
    TITLE "0:"
    INDEX 01 12:40:47
  TRACK 618 AUDIO
    TITLE "29:cjc135_4768"
    INDEX 01 12:41:46
  TRACK 619 AUDIO
    TITLE "0:"
    INDEX 01 12:42:62
  TRACK 620 AUDIO
    TITLE "30:cjc135_4769"
    INDEX 01 12:43:36
  TRACK 621 AUDIO
    TITLE "0:"
    INDEX 01 12:45:15
  TRACK 622 AUDIO
    TITLE "31:cjc135_4770"
    INDEX 01 12:45:38
  TRACK 623 AUDIO
    TITLE "0:"
    INDEX 01 12:47:43
  TRACK 624 AUDIO
    TITLE "32:cjc135_4771"
    INDEX 01 12:47:71
  TRACK 625 AUDIO
    TITLE "0:"
    INDEX 01 12:50:00
  TRACK 626 AUDIO
    TITLE "29:cjc135_4772"
    INDEX 01 12:51:02
  TRACK 627 AUDIO
    TITLE "0:"
    INDEX 01 12:52:42
  TRACK 628 AUDIO
    TITLE "30:cjc135_4773"
    INDEX 01 12:53:20
  TRACK 629 AUDIO
    TITLE "0:"
    INDEX 01 12:56:03
  TRACK 630 AUDIO
    TITLE "31:cjc135_4774"
    INDEX 01 12:56:26
  TRACK 631 AUDIO
    TITLE "0:"
    INDEX 01 12:58:66
  TRACK 632 AUDIO
    TITLE "32:cjc135_4775"
    INDEX 01 12:59:15
  TRACK 633 AUDIO
    TITLE "0:"
    INDEX 01 13:01:53
  TRACK 634 AUDIO
    TITLE "29:cjc135_4776"
    INDEX 01 13:02:53
  TRACK 635 AUDIO
    TITLE "0:"
    INDEX 01 13:03:56
  TRACK 636 AUDIO
    TITLE "30:cjc135_4777"
    INDEX 01 13:04:30
  TRACK 637 AUDIO
    TITLE "0:"
    INDEX 01 13:06:21
  TRACK 638 AUDIO
    TITLE "31:cjc135_4778"
    INDEX 01 13:06:44
  TRACK 639 AUDIO
    TITLE "0:"
    INDEX 01 13:08:08
  TRACK 640 AUDIO
    TITLE "32:cjc135_4779"
    INDEX 01 13:08:32
  TRACK 641 AUDIO
    TITLE "0:"
    INDEX 01 13:09:70
  TRACK 642 AUDIO
    TITLE "29:cjc135_4780"
    INDEX 01 13:10:70
  TRACK 643 AUDIO
    TITLE "0:"
    INDEX 01 13:12:06
  TRACK 644 AUDIO
    TITLE "30:cjc135_4781"
    INDEX 01 13:12:55
  TRACK 645 AUDIO
    TITLE "0:"
    INDEX 01 13:14:26
  TRACK 646 AUDIO
    TITLE "31:cjc135_4782"
    INDEX 01 13:14:52
  TRACK 647 AUDIO
    TITLE "0:"
    INDEX 01 13:16:35
  TRACK 648 AUDIO
    TITLE "32:cjc135_4783"
    INDEX 01 13:16:57
  TRACK 649 AUDIO
    TITLE "0:"
    INDEX 01 13:18:40
  TRACK 650 AUDIO
    TITLE "29:cjc135_4784"
    INDEX 01 13:19:37
  TRACK 651 AUDIO
    TITLE "0:"
    INDEX 01 13:20:35
  TRACK 652 AUDIO
    TITLE "30:cjc135_4785"
    INDEX 01 13:21:09
  TRACK 653 AUDIO
    TITLE "0:"
    INDEX 01 13:23:08
  TRACK 654 AUDIO
    TITLE "31:cjc135_4786"
    INDEX 01 13:23:33
  TRACK 655 AUDIO
    TITLE "0:"
    INDEX 01 13:25:34
  TRACK 656 AUDIO
    TITLE "32:cjc135_4787"
    INDEX 01 13:25:57
  TRACK 657 AUDIO
    TITLE "0:"
    INDEX 01 13:27:58
  TRACK 658 AUDIO
    TITLE "29:cjc135_4788"
    INDEX 01 13:28:58
  TRACK 659 AUDIO
    TITLE "0:"
    INDEX 01 13:30:18
  TRACK 660 AUDIO
    TITLE "30:cjc135_4789"
    INDEX 01 13:30:66
  TRACK 661 AUDIO
    TITLE "0:"
    INDEX 01 13:32:52
  TRACK 662 AUDIO
    TITLE "31:cjc135_4790"
    INDEX 01 13:33:02
  TRACK 663 AUDIO
    TITLE "0:"
    INDEX 01 13:34:74
  TRACK 664 AUDIO
    TITLE "32:cjc135_4791"
    INDEX 01 13:35:25
  TRACK 665 AUDIO
    TITLE "0:"
    INDEX 01 13:37:20
  TRACK 666 AUDIO
    TITLE "29:cjc135_4792"
    INDEX 01 13:38:23
  TRACK 667 AUDIO
    TITLE "0:"
    INDEX 01 13:39:36
  TRACK 668 AUDIO
    TITLE "30:cjc135_4793"
    INDEX 01 13:40:12
  TRACK 669 AUDIO
    TITLE "0:"
    INDEX 01 13:42:01
  TRACK 670 AUDIO
    TITLE "31:cjc135_4794"
    INDEX 01 13:42:25
  TRACK 671 AUDIO
    TITLE "0:"
    INDEX 01 13:44:04
  TRACK 672 AUDIO
    TITLE "32:cjc135_4795"
    INDEX 01 13:44:25
  TRACK 673 AUDIO
    TITLE "0:"
    INDEX 01 13:46:07
  TRACK 674 AUDIO
    TITLE "29:cjc135_4796"
    INDEX 01 13:47:04
  TRACK 675 AUDIO
    TITLE "0:"
    INDEX 01 13:48:10
  TRACK 676 AUDIO
    TITLE "30:cjc135_4797"
    INDEX 01 13:48:60
  TRACK 677 AUDIO
    TITLE "0:"
    INDEX 01 13:50:34
  TRACK 678 AUDIO
    TITLE "31:cjc135_4798"
    INDEX 01 13:50:57
  TRACK 679 AUDIO
    TITLE "0:"
    INDEX 01 13:52:35
  TRACK 680 AUDIO
    TITLE "32:cjc135_4799"
    INDEX 01 13:52:58
  TRACK 681 AUDIO
    TITLE "0:"
    INDEX 01 13:54:34
  TRACK 682 AUDIO
    TITLE "29:cjc135_4800"
    INDEX 01 13:55:33
  TRACK 683 AUDIO
    TITLE "0:"
    INDEX 01 13:56:46
  TRACK 684 AUDIO
    TITLE "30:cjc135_4801"
    INDEX 01 13:57:20
  TRACK 685 AUDIO
    TITLE "0:"
    INDEX 01 13:59:23
  TRACK 686 AUDIO
    TITLE "31:cjc135_4802"
    INDEX 01 13:59:54
  TRACK 687 AUDIO
    TITLE "0:"
    INDEX 01 14:01:26
  TRACK 688 AUDIO
    TITLE "32:cjc135_4803"
    INDEX 01 14:01:49
  TRACK 689 AUDIO
    TITLE "0:"
    INDEX 01 14:03:21
  TRACK 690 AUDIO
    TITLE "29:cjc135_4804"
    INDEX 01 14:04:20
  TRACK 691 AUDIO
    TITLE "0:"
    INDEX 01 14:05:43
  TRACK 692 AUDIO
    TITLE "30:cjc135_4805"
    INDEX 01 14:06:23
  TRACK 693 AUDIO
    TITLE "0:"
    INDEX 01 14:09:69
  TRACK 694 AUDIO
    TITLE "31:cjc135_4806"
    INDEX 01 14:10:19
  TRACK 695 AUDIO
    TITLE "0:"
    INDEX 01 14:13:09
  TRACK 696 AUDIO
    TITLE "32:cjc135_4807"
    INDEX 01 14:13:33
  TRACK 697 AUDIO
    TITLE "0:"
    INDEX 01 14:16:22
  TRACK 698 AUDIO
    TITLE "29:cjc135_4808"
    INDEX 01 14:17:19
  TRACK 699 AUDIO
    TITLE "0:"
    INDEX 01 14:18:22
  TRACK 700 AUDIO
    TITLE "30:cjc135_4809"
    INDEX 01 14:18:71
  TRACK 701 AUDIO
    TITLE "0:"
    INDEX 01 14:21:01
  TRACK 702 AUDIO
    TITLE "31:cjc135_4810"
    INDEX 01 14:21:25
  TRACK 703 AUDIO
    TITLE "0:"
    INDEX 01 14:23:29
  TRACK 704 AUDIO
    TITLE "32:cjc135_4811"
    INDEX 01 14:23:55
  TRACK 705 AUDIO
    TITLE "0:"
    INDEX 01 14:25:60
  TRACK 706 AUDIO
    TITLE "29:cjc135_4812"
    INDEX 01 14:26:59
  TRACK 707 AUDIO
    TITLE "0:"
    INDEX 01 14:27:61
  TRACK 708 AUDIO
    TITLE "30:cjc135_4813"
    INDEX 01 14:28:35
  TRACK 709 AUDIO
    TITLE "0:"
    INDEX 01 14:30:10
  TRACK 710 AUDIO
    TITLE "31:cjc135_4814"
    INDEX 01 14:30:35
  TRACK 711 AUDIO
    TITLE "0:"
    INDEX 01 14:32:01
  TRACK 712 AUDIO
    TITLE "32:cjc135_4815"
    INDEX 01 14:32:26
  TRACK 713 AUDIO
    TITLE "0:"
    INDEX 01 14:33:69
  TRACK 714 AUDIO
    TITLE "29:cjc135_4816"
    INDEX 01 14:34:70
  TRACK 715 AUDIO
    TITLE "0:"
    INDEX 01 14:36:05
  TRACK 716 AUDIO
    TITLE "30:cjc135_4817"
    INDEX 01 14:36:56
  TRACK 717 AUDIO
    TITLE "0:"
    INDEX 01 14:38:37
  TRACK 718 AUDIO
    TITLE "31:cjc135_4818"
    INDEX 01 14:38:62
  TRACK 719 AUDIO
    TITLE "0:"
    INDEX 01 14:40:46
  TRACK 720 AUDIO
    TITLE "32:cjc135_4819"
    INDEX 01 14:40:69
  TRACK 721 AUDIO
    TITLE "0:"
    INDEX 01 14:42:52
  TRACK 722 AUDIO
    TITLE "29:cjc135_4820"
    INDEX 01 14:43:52
  TRACK 723 AUDIO
    TITLE "0:"
    INDEX 01 14:45:04
  TRACK 724 AUDIO
    TITLE "30:cjc135_4821"
    INDEX 01 14:45:53
  TRACK 725 AUDIO
    TITLE "0:"
    INDEX 01 14:48:49
  TRACK 726 AUDIO
    TITLE "31:cjc135_4822"
    INDEX 01 14:48:72
  TRACK 727 AUDIO
    TITLE "0:"
    INDEX 01 14:51:49
  TRACK 728 AUDIO
    TITLE "32:cjc135_4823"
    INDEX 01 14:51:73
  TRACK 729 AUDIO
    TITLE "0:"
    INDEX 01 14:54:48
  TRACK 730 AUDIO
    TITLE "29:cjc135_4824"
    INDEX 01 14:55:47
  TRACK 731 AUDIO
    TITLE "0:"
    INDEX 01 14:56:68
  TRACK 732 AUDIO
    TITLE "30:cjc135_4825"
    INDEX 01 14:57:42
  TRACK 733 AUDIO
    TITLE "0:"
    INDEX 01 14:59:43
  TRACK 734 AUDIO
    TITLE "31:cjc135_4826"
    INDEX 01 14:59:66
  TRACK 735 AUDIO
    TITLE "0:"
    INDEX 01 15:01:52
  TRACK 736 AUDIO
    TITLE "32:cjc135_4827"
    INDEX 01 15:02:00
  TRACK 737 AUDIO
    TITLE "0:"
    INDEX 01 15:03:58
  TRACK 738 AUDIO
    TITLE "29:cjc135_4828"
    INDEX 01 15:04:58
  TRACK 739 AUDIO
    TITLE "0:"
    INDEX 01 15:05:57
  TRACK 740 AUDIO
    TITLE "30:cjc135_4829"
    INDEX 01 15:06:31
  TRACK 741 AUDIO
    TITLE "0:"
    INDEX 01 15:08:20
  TRACK 742 AUDIO
    TITLE "31:cjc135_4830"
    INDEX 01 15:08:44
  TRACK 743 AUDIO
    TITLE "0:"
    INDEX 01 15:10:29
  TRACK 744 AUDIO
    TITLE "32:cjc135_4831"
    INDEX 01 15:10:53
  TRACK 745 AUDIO
    TITLE "0:"
    INDEX 01 15:12:36
  TRACK 746 AUDIO
    TITLE "29:cjc135_4832"
    INDEX 01 15:13:33
  TRACK 747 AUDIO
    TITLE "0:"
    INDEX 01 15:14:37
  TRACK 748 AUDIO
    TITLE "30:cjc135_4833"
    INDEX 01 15:15:20
  TRACK 749 AUDIO
    TITLE "0:"
    INDEX 01 15:17:02
  TRACK 750 AUDIO
    TITLE "31:cjc135_4834"
    INDEX 01 15:17:25
  TRACK 751 AUDIO
    TITLE "0:"
    INDEX 01 15:18:60
  TRACK 752 AUDIO
    TITLE "32:cjc135_4835"
    INDEX 01 15:19:10
  TRACK 753 AUDIO
    TITLE "0:"
    INDEX 01 15:20:45
  TRACK 754 AUDIO
    TITLE "29:cjc135_4836"
    INDEX 01 15:21:45
  TRACK 755 AUDIO
    TITLE "0:"
    INDEX 01 15:22:46
  TRACK 756 AUDIO
    TITLE "30:cjc135_4837"
    INDEX 01 15:23:22
  TRACK 757 AUDIO
    TITLE "0:"
    INDEX 01 15:26:06
  TRACK 758 AUDIO
    TITLE "31:cjc135_4838"
    INDEX 01 15:26:30
  TRACK 759 AUDIO
    TITLE "0:"
    INDEX 01 15:28:54
  TRACK 760 AUDIO
    TITLE "32:cjc135_4839"
    INDEX 01 15:29:07
  TRACK 761 AUDIO
    TITLE "0:"
    INDEX 01 15:31:31
  TRACK 762 AUDIO
    TITLE "29:cjc135_4840"
    INDEX 01 15:32:35
  TRACK 763 AUDIO
    TITLE "0:"
    INDEX 01 15:33:48
  TRACK 764 AUDIO
    TITLE "30:cjc135_4841"
    INDEX 01 15:34:20
  TRACK 765 AUDIO
    TITLE "0:"
    INDEX 01 15:37:08
  TRACK 766 AUDIO
    TITLE "31:cjc135_4842"
    INDEX 01 15:37:32
  TRACK 767 AUDIO
    TITLE "0:"
    INDEX 01 15:39:27
  TRACK 768 AUDIO
    TITLE "32:cjc135_4843"
    INDEX 01 15:39:52
  TRACK 769 AUDIO
    TITLE "0:"
    INDEX 01 15:41:47
  TRACK 770 AUDIO
    TITLE "29:cjc135_4844"
    INDEX 01 15:42:47
  TRACK 771 AUDIO
    TITLE "0:"
    INDEX 01 15:43:58
  TRACK 772 AUDIO
    TITLE "30:cjc135_4845"
    INDEX 01 15:44:32
  TRACK 773 AUDIO
    TITLE "0:"
    INDEX 01 15:46:72
  TRACK 774 AUDIO
    TITLE "31:cjc135_4846"
    INDEX 01 15:47:24
  TRACK 775 AUDIO
    TITLE "0:"
    INDEX 01 15:49:45
  TRACK 776 AUDIO
    TITLE "32:cjc135_4847"
    INDEX 01 15:49:72
  TRACK 777 AUDIO
    TITLE "0:"
    INDEX 01 15:52:18
  TRACK 778 AUDIO
    TITLE "29:cjc135_4848"
    INDEX 01 15:53:17
  TRACK 779 AUDIO
    TITLE "0:"
    INDEX 01 15:54:30
  TRACK 780 AUDIO
    TITLE "30:cjc135_4849"
    INDEX 01 15:55:04
  TRACK 781 AUDIO
    TITLE "0:"
    INDEX 01 15:57:09
  TRACK 782 AUDIO
    TITLE "31:cjc135_4850"
    INDEX 01 15:57:33
  TRACK 783 AUDIO
    TITLE "0:"
    INDEX 01 15:59:16
  TRACK 784 AUDIO
    TITLE "32:cjc135_4851"
    INDEX 01 15:59:39
  TRACK 785 AUDIO
    TITLE "0:"
    INDEX 01 16:01:22
  TRACK 786 AUDIO
    TITLE "29:cjc135_4852"
    INDEX 01 16:02:22
  TRACK 787 AUDIO
    TITLE "0:"
    INDEX 01 16:03:33
  TRACK 788 AUDIO
    TITLE "30:cjc135_4853"
    INDEX 01 16:04:07
  TRACK 789 AUDIO
    TITLE "0:"
    INDEX 01 16:06:14
  TRACK 790 AUDIO
    TITLE "31:cjc135_4854"
    INDEX 01 16:06:37
  TRACK 791 AUDIO
    TITLE "0:"
    INDEX 01 16:08:56
  TRACK 792 AUDIO
    TITLE "32:cjc135_4855"
    INDEX 01 16:09:04
  TRACK 793 AUDIO
    TITLE "0:"
    INDEX 01 16:11:23
  TRACK 794 AUDIO
    TITLE "29:cjc135_4856"
    INDEX 01 16:12:22
  TRACK 795 AUDIO
    TITLE "0:"
    INDEX 01 16:13:37
  TRACK 796 AUDIO
    TITLE "30:cjc135_4857"
    INDEX 01 16:14:11
  TRACK 797 AUDIO
    TITLE "0:"
    INDEX 01 16:16:12
  TRACK 798 AUDIO
    TITLE "31:cjc135_4858"
    INDEX 01 16:16:38
  TRACK 799 AUDIO
    TITLE "0:"
    INDEX 01 16:18:29
  TRACK 800 AUDIO
    TITLE "32:cjc135_4859"
    INDEX 01 16:18:54
  TRACK 801 AUDIO
    TITLE "0:"
    INDEX 01 16:20:45
